Coordinates
version=1
nRows=6
nColumns=46
inDegrees=yes

Units are S.I. units (second, meters, Newtons, ...)
Angles are in degrees.

endheader
time	pelvis_tilt	pelvis_list	pelvis_rotation	pelvis_tx	pelvis_ty	pelvis_tz	bb_angle	bb_tx	bb_ty	bb_tz	hip_flexion_r	hip_adduction_r	hip_rotation_r	knee_angle_r	knee_angle_r_beta	ankle_angle_r	subtalar_angle_r	mtp_angle_r	crank_angle_r	hip_flexion_l	hip_adduction_l	hip_rotation_l	knee_angle_l	knee_angle_l_beta	ankle_angle_l	subtalar_angle_l	mtp_angle_l	crank_angle_l	lumbar_extension	lumbar_bending	lumbar_rotation	arm_flex_r	arm_add_r	arm_rot_r	elbow_flex_r	pro_sup_r	wrist_flex_r	wrist_dev_r	arm_flex_l	arm_add_l	arm_rot_l	elbow_flex_l	pro_sup_l	wrist_flex_l	wrist_dev_l
      7.50000000	    -30.80173863	     -8.84981197	    -11.53152122	      0.41496289	      1.17613790	     -0.27992800	      0.00000000	      0.50000000	      0.00000000	      0.25000000	     84.23867364	     10.13130249	     -2.77823556	     98.71910104	      1.72297335	      0.00896217	     -8.33588744	      0.00000000	      0.00000000	     29.82823745	    -21.36459756	    -13.82414132	     32.89049530	      0.57404744	    -12.48551390	      9.02557439	      0.00000000	      0.00000000	    -66.21419821	      1.01742502	     -4.34723589	     51.80840055	    -16.95510572	     36.06301407	    102.26175538	     50.51795127	      0.00000000	      0.00000000	      0.99853566	    -34.98495533	    -16.37611241	    120.30584620	     53.46447256	      0.00000000	      0.00000000
      7.50500000	    -31.00696160	     -8.40627599	    -11.64810101	      0.41448191	      1.17847469	     -0.27868623	      0.00000000	      0.50000000	      0.00000000	      0.25000000	     83.72480829	     10.65044466	     -2.10969978	     96.74505537	      1.68851975	      0.52224045	     -8.62380310	      0.00000000	      0.00000000	     31.05063124	    -21.34550848	    -13.34406654	     35.20784031	      0.61449274	    -13.16304574	      8.09448339	      0.00000000	      0.00000000	    -66.34827178	      0.45951501	     -4.54275406	     51.83442436	    -16.83835953	     35.77214838	    102.53755853	     50.52690934	      0.00000000	      0.00000000	      1.70387292	    -35.24241115	    -16.38523004	    120.43058083	     53.48289309	      0.00000000	      0.00000000
      7.51000000	    -31.77880896	     -8.14845471	    -11.48998597	      0.41339726	      1.17995200	     -0.27785946	      0.00000000	      0.50000000	      0.00000000	      0.25000000	     83.58650059	     10.80763684	     -1.83537449	     94.46882812	      1.64879209	      0.76774707	     -9.35842224	      0.00000000	      0.00000000	     33.29226251	    -21.31331467	    -11.90235132	     37.76827378	      0.65918073	    -14.24518188	      6.90866722	      0.00000000	      0.00000000	    -65.90704154	      0.36220020	     -4.24503391	     51.24752893	    -17.02274911	     34.75555805	    103.24745155	     50.52756779	      0.00000000	      0.00000000	      2.66048785	    -35.19956861	    -15.72987754	    120.37947223	     53.58364998	      0.00000000	      0.00000000
      7.51500000	    -32.10705699	     -7.69012434	    -11.33557387	      0.41304807	      1.18168509	     -0.27680766	      0.00000000	      0.50000000	      0.00000000	      0.25000000	     82.84898742	     11.02731830	     -1.18135472	     92.15508497	      1.60840966	      1.16582367	    -10.15306408	      0.00000000	      0.00000000	     34.98035483	    -21.11258070	    -10.97712871	     40.32171604	      0.70374670	    -15.13949619	      5.97886394	      0.00000000	      0.00000000	    -65.93861340	      0.14686750	     -4.12201756	     50.82523981	    -17.19506921	     33.92472513	    104.08708937	     50.56596800	      0.00000000	      0.00000000	      3.78290552	    -35.31390467	    -15.05982611	    120.20853057	     53.66317831	      0.00000000	      0.00000000
      7.52000000	    -32.18199473	     -7.02429727	    -11.28976413	      0.41305604	      1.18349800	     -0.27559825	      0.00000000	      0.50000000	      0.00000000	      0.25000000	     81.70393502	     11.22467592	     -0.27684082	     89.74245043	      1.56630124	      1.81562441	    -10.68099819	      0.00000000	      0.00000000	     36.28440781	    -20.75280645	    -10.40295232	     42.80392651	      0.74706945	    -15.84929247	      5.32566889	      0.00000000	      0.00000000	    -66.12808482	     -0.36015712	     -4.51473191	     50.71982881	    -17.08105276	     33.62105305	    104.43373995	     50.58589162	      0.00000000	      0.00000000	      4.54680294	    -35.52128553	    -14.90988152	    120.23160341	     53.68419021	      0.00000000	      0.00000000
      7.52500000	    -32.52450940	     -6.50938424	    -11.00603118	      0.41283987	      1.18463159	     -0.27475187	      0.00000000	      0.50000000	      0.00000000	      0.25000000	     80.70820593	     11.16770525	      0.35213833	     87.16245915	      1.52127190	      2.22568474	    -11.70117866	      0.00000000	      0.00000000	     38.12358926	    -20.35815055	     -9.30633006	     45.44841502	      0.79322448	    -16.58780870	      4.62326003	      0.00000000	      0.00000000	    -65.92387757	     -0.70144671	     -3.13865874	     48.96749938	    -18.48130410	     31.20594520	    106.37929793	     50.60155902	      0.00000000	      0.00000000	      8.01428967	    -35.32212033	    -11.31684046	    118.95076591	     54.02372379	      0.00000000	      0.00000000
